<svg width="113" height="38" viewBox="0 0 113 38" fill="none" xmlns="http://www.w3.org/2000/svg">
<path d="M1 0.5H107.647C110.051 0.5 112 2.44878 112 4.85273V33.1473C112 35.5512 110.051 37.5 107.647 37.5H1V0.5Z" fill="white"/>
<path d="M1 0.5H107.647C110.051 0.5 112 2.44878 112 4.85273V33.1473C112 35.5512 110.051 37.5 107.647 37.5H1V0.5Z" stroke="black"/>
<path d="M22.7074 20.851V19.562H25.9944C26.8269 19.562 27.4714 19.3472 27.9279 18.9175C28.3844 18.4825 28.6127 17.8836 28.6127 17.1209V17.1048C28.6127 16.3368 28.3844 15.7379 27.9279 15.3083C27.4714 14.8786 26.8269 14.6638 25.9944 14.6638H22.7074V13.3748H26.365C27.0954 13.3748 27.7399 13.5305 28.2985 13.842C28.8571 14.1535 29.2948 14.5886 29.6117 15.1472C29.9339 15.7057 30.095 16.3529 30.095 17.0887V17.1048C30.095 17.8406 29.9339 18.4905 29.6117 19.0545C29.2948 19.6184 28.8571 20.0588 28.2985 20.3757C27.7399 20.6926 27.0954 20.851 26.365 20.851H22.7074ZM21.9824 25V13.3748H23.4325V25H21.9824ZM34.3568 25.1531C33.809 25.1531 33.3149 25.0483 32.8745 24.8389C32.4394 24.6294 32.093 24.3313 31.8352 23.9446C31.5828 23.5579 31.4566 23.1014 31.4566 22.5751V22.5589C31.4566 22.0433 31.5801 21.6029 31.8271 21.2377C32.0742 20.8671 32.4341 20.5771 32.9067 20.3676C33.3793 20.1582 33.9513 20.0346 34.6227 19.997L37.813 19.8037V20.9235L34.7919 21.1169C34.1312 21.1545 33.6479 21.2914 33.3417 21.5277C33.041 21.7641 32.8906 22.097 32.8906 22.5267V22.5428C32.8906 22.9832 33.0571 23.327 33.3901 23.574C33.7231 23.8157 34.142 23.9366 34.6469 23.9366C35.1249 23.9366 35.5492 23.8426 35.9197 23.6546C36.2903 23.4612 36.5804 23.2008 36.7898 22.8731C37.0047 22.5455 37.1121 22.1749 37.1121 21.7614V19.0545C37.1121 18.5174 36.9483 18.1092 36.6206 17.8299C36.2984 17.5452 35.8123 17.4029 35.1625 17.4029C34.6415 17.4029 34.2145 17.4969 33.8815 17.6849C33.5485 17.8675 33.3256 18.128 33.2128 18.4663L33.2048 18.4905H31.803L31.811 18.4422C31.8862 17.9857 32.0742 17.5882 32.375 17.2498C32.6811 16.9061 33.0759 16.6403 33.5593 16.4523C34.0426 16.2589 34.5931 16.1622 35.2108 16.1622C35.9197 16.1622 36.5186 16.2777 37.0073 16.5087C37.5015 16.7396 37.8747 17.0726 38.1272 17.5076C38.385 17.9373 38.5139 18.4529 38.5139 19.0545V25H37.1121V23.719H36.9832C36.8006 24.0252 36.5777 24.2857 36.3145 24.5005C36.0567 24.7153 35.764 24.8792 35.4364 24.9919C35.1087 25.0994 34.7489 25.1531 34.3568 25.1531ZM41.0758 25V16.3153H42.4776V17.6204H42.6065C42.8267 17.1585 43.1436 16.8014 43.5571 16.5489C43.9707 16.2911 44.497 16.1622 45.1361 16.1622C46.1136 16.1622 46.8629 16.4415 47.3838 17.0001C47.9102 17.5533 48.1734 18.3455 48.1734 19.3767V25H46.7716V19.7151C46.7716 18.9309 46.6051 18.3509 46.2721 17.9749C45.9445 17.5936 45.4342 17.4029 44.7414 17.4029C44.2795 17.4029 43.8794 17.5023 43.541 17.701C43.2026 17.8997 42.9395 18.1817 42.7515 18.5469C42.5689 18.9121 42.4776 19.3499 42.4776 19.8601V25H41.0758ZM53.7967 25.0645C52.9051 25.0645 52.2579 24.8845 51.8551 24.5247C51.4576 24.1648 51.2589 23.5714 51.2589 22.7442V17.4754H49.8894V16.3153H51.2589V14.0676H52.7091V16.3153H54.6103V17.4754H52.7091V22.3898C52.7091 22.9 52.8057 23.2679 52.9991 23.4935C53.1924 23.7137 53.5147 23.8238 53.9658 23.8238C54.0894 23.8238 54.1941 23.8211 54.28 23.8157C54.3713 23.8104 54.4814 23.8023 54.6103 23.7916V24.9839C54.4761 25.0054 54.3418 25.0242 54.2075 25.0403C54.0733 25.0564 53.9363 25.0645 53.7967 25.0645ZM59.5247 25.1531C58.8802 25.1531 58.3109 25.0564 57.8167 24.863C57.3226 24.6643 56.9252 24.3877 56.6244 24.0332C56.329 23.6788 56.1545 23.2625 56.1008 22.7845H57.5348C57.6529 23.1444 57.8839 23.4344 58.2276 23.6546C58.5714 23.8748 59.0198 23.9849 59.573 23.9849C59.9651 23.9849 60.3088 23.9285 60.6042 23.8157C60.905 23.6976 61.1413 23.5391 61.3132 23.3404C61.485 23.1363 61.571 22.9027 61.571 22.6395V22.6234C61.571 22.328 61.4528 22.0783 61.2165 21.8742C60.9802 21.6647 60.5935 21.4955 60.0564 21.3666L58.711 21.0444C58.1685 20.9155 57.7228 20.749 57.3737 20.5449C57.0245 20.3354 56.7667 20.0803 56.6002 19.7795C56.4338 19.4734 56.3505 19.1135 56.3505 18.7V18.6919C56.3505 18.2085 56.4901 17.7762 56.7694 17.3949C57.0541 17.0135 57.4408 16.7128 57.9295 16.4926C58.4183 16.2723 58.9688 16.1622 59.5811 16.1622C60.188 16.1622 60.7251 16.2589 61.1923 16.4523C61.665 16.6403 62.0436 16.9088 62.3283 17.2579C62.6183 17.607 62.7955 18.0179 62.86 18.4905H61.4824C61.3911 18.1468 61.1816 17.8675 60.854 17.6527C60.5263 17.4378 60.0994 17.3304 59.573 17.3304C59.2293 17.3304 58.9231 17.3868 58.6546 17.4996C58.3861 17.607 58.1739 17.7574 58.0182 17.9507C57.8624 18.1441 57.7845 18.3697 57.7845 18.6275V18.6436C57.7845 18.8369 57.8355 19.0088 57.9376 19.1592C58.0396 19.3096 58.1981 19.4412 58.4129 19.5539C58.6277 19.6667 58.9043 19.7661 59.2427 19.852L60.5801 20.1743C61.3964 20.373 62.0033 20.6577 62.4008 21.0282C62.8036 21.3988 63.005 21.8956 63.005 22.5187V22.5348C63.005 23.0504 62.8519 23.5069 62.5458 23.9043C62.2397 24.2964 61.8234 24.6026 61.2971 24.8228C60.7761 25.043 60.1853 25.1531 59.5247 25.1531ZM72.7531 27.9003C72.2321 27.2074 71.8025 26.4716 71.4641 25.6928C71.1257 24.9141 70.8733 24.0843 70.7068 23.2034C70.5457 22.3226 70.4651 21.3827 70.4651 20.3837C70.4651 19.3848 70.5457 18.4475 70.7068 17.5721C70.8679 16.6913 71.1177 15.8615 71.4561 15.0827C71.7944 14.2986 72.2268 13.5601 72.7531 12.8672H73.9293C73.6393 13.2378 73.3681 13.7051 73.1157 14.269C72.8686 14.833 72.6538 15.456 72.4711 16.1381C72.2885 16.8148 72.1462 17.5184 72.0442 18.2488C71.9421 18.9739 71.8911 19.6855 71.8911 20.3837C71.8911 21.0873 71.9421 21.8043 72.0442 22.5348C72.1462 23.2598 72.2885 23.9634 72.4711 24.6455C72.6538 25.3223 72.8686 25.9399 73.1157 26.4985C73.3681 27.0624 73.6393 27.5297 73.9293 27.9003H72.7531ZM80.2213 25.2739C79.6896 25.2739 79.1632 25.1719 78.6423 24.9678C78.1267 24.7637 77.6567 24.4334 77.2324 23.9769C76.8135 23.5203 76.4778 22.9188 76.2254 22.1722C75.9729 21.4203 75.8467 20.4965 75.8467 19.4009V19.3848C75.8467 18.0635 76.024 16.9357 76.3784 16.0011C76.7329 15.0612 77.2432 14.3442 77.9091 13.8501C78.5751 13.3506 79.3781 13.1009 80.318 13.1009C80.9679 13.1009 81.5533 13.2217 82.0742 13.4634C82.6006 13.6997 83.0383 14.0327 83.3874 14.4624C83.7419 14.8867 83.9836 15.3862 84.1125 15.9608L84.1367 16.0656H82.6785L82.6462 15.977C82.5281 15.6493 82.3589 15.37 82.1387 15.1391C81.9239 14.9028 81.6607 14.7202 81.3492 14.5913C81.043 14.4624 80.6939 14.3979 80.3019 14.3979C79.5983 14.3979 79.0263 14.6047 78.5859 15.0183C78.1455 15.4264 77.8178 15.9716 77.603 16.6537C77.3935 17.3304 77.2727 18.0743 77.2405 18.8853C77.2351 18.9551 77.2324 19.0276 77.2324 19.1028C77.2324 19.1726 77.2324 19.2451 77.2324 19.3203L77.5788 21.2538C77.5788 21.7641 77.6943 22.2259 77.9253 22.6395C78.1616 23.0531 78.4785 23.3834 78.8759 23.6304C79.2733 23.8721 79.7164 23.993 80.2052 23.993C80.6939 23.993 81.137 23.8748 81.5345 23.6385C81.9319 23.3968 82.2461 23.0719 82.4771 22.6637C82.7134 22.2555 82.8315 21.8017 82.8315 21.3022V21.286C82.8315 20.7704 82.7188 20.3139 82.4932 19.9165C82.273 19.5137 81.9668 19.1995 81.5748 18.9739C81.1827 18.7429 80.7342 18.6275 80.2294 18.6275C79.7299 18.6275 79.2787 18.7403 78.8759 18.9658C78.4785 19.1914 78.1616 19.5029 77.9253 19.9004C77.6943 20.2924 77.5788 20.7409 77.5788 21.2458V21.2538H77.1035V19.1592H77.3855C77.5305 18.8423 77.7453 18.5469 78.03 18.273C78.3146 17.9991 78.6638 17.7789 79.0773 17.6124C79.4909 17.4459 79.9581 17.3626 80.4791 17.3626C81.2095 17.3626 81.8621 17.5318 82.4368 17.8702C83.0115 18.2085 83.4626 18.6704 83.7902 19.2559C84.1232 19.8413 84.2897 20.5073 84.2897 21.2538V21.2699C84.2897 22.0433 84.1125 22.7308 83.758 23.3323C83.4089 23.9339 82.9282 24.4092 82.3159 24.7583C81.7037 25.102 81.0054 25.2739 80.2213 25.2739ZM87.3833 27.9003H86.2071C86.4972 27.5297 86.7657 27.0624 87.0128 26.4985C87.2652 25.9399 87.4827 25.3223 87.6653 24.6455C87.8479 23.9634 87.9903 23.2598 88.0923 22.5348C88.1943 21.8043 88.2454 21.0873 88.2454 20.3837C88.2454 19.6855 88.1943 18.9739 88.0923 18.2488C87.9903 17.5184 87.8479 16.8148 87.6653 16.1381C87.4827 15.456 87.2652 14.833 87.0128 14.269C86.7657 13.7051 86.4972 13.2378 86.2071 12.8672H87.3833C87.9097 13.5601 88.342 14.2986 88.6804 15.0827C89.0188 15.8615 89.2685 16.6913 89.4296 17.5721C89.5908 18.4475 89.6713 19.3848 89.6713 20.3837C89.6713 21.3827 89.5881 22.3226 89.4216 23.2034C89.2605 24.0843 89.0107 24.9141 88.6724 25.6928C88.3394 26.4716 87.9097 27.2074 87.3833 27.9003Z" fill="black"/>
</svg>
