<svg width="112" height="38" viewBox="0 0 112 38" fill="none" xmlns="http://www.w3.org/2000/svg">
<path d="M4.85273 0.5H111.5V37.5H4.85273C2.44878 37.5 0.5 35.5512 0.5 33.1473V4.85273C0.5 2.44878 2.44879 0.5 4.85273 0.5Z" fill="black"/>
<path d="M4.85273 0.5H111.5V37.5H4.85273C2.44878 37.5 0.5 35.5512 0.5 33.1473V4.85273C0.5 2.44878 2.44879 0.5 4.85273 0.5Z" stroke="black"/>
<path d="M24.5035 25V14.6799H20.7573V13.3748H29.6998V14.6799H25.9536V25H24.5035ZM33.5346 25.1531C32.8901 25.1531 32.3208 25.0564 31.8266 24.863C31.3325 24.6643 30.9351 24.3877 30.6343 24.0332C30.3389 23.6788 30.1644 23.2625 30.1106 22.7845H31.5447C31.6628 23.1444 31.8938 23.4344 32.2375 23.6546C32.5812 23.8748 33.0297 23.9849 33.5829 23.9849C33.975 23.9849 34.3187 23.9285 34.6141 23.8157C34.9149 23.6976 35.1512 23.5391 35.3231 23.3404C35.4949 23.1363 35.5809 22.9027 35.5809 22.6395V22.6234C35.5809 22.328 35.4627 22.0783 35.2264 21.8742C34.9901 21.6647 34.6034 21.4955 34.0663 21.3666L32.7209 21.0444C32.1784 20.9155 31.7326 20.749 31.3835 20.5449C31.0344 20.3354 30.7766 20.0803 30.6101 19.7795C30.4436 19.4734 30.3604 19.1135 30.3604 18.7V18.6919C30.3604 18.2085 30.5 17.7762 30.7793 17.3949C31.064 17.0135 31.4507 16.7128 31.9394 16.4926C32.4282 16.2723 32.9787 16.1622 33.591 16.1622C34.1979 16.1622 34.735 16.2589 35.2022 16.4523C35.6749 16.6403 36.0535 16.9088 36.3382 17.2579C36.6282 17.607 36.8054 18.0179 36.8699 18.4905H35.4923C35.4009 18.1468 35.1915 17.8675 34.8639 17.6527C34.5362 17.4378 34.1093 17.3304 33.5829 17.3304C33.2392 17.3304 32.933 17.3868 32.6645 17.4996C32.396 17.607 32.1838 17.7574 32.028 17.9507C31.8723 18.1441 31.7944 18.3697 31.7944 18.6275V18.6436C31.7944 18.8369 31.8454 19.0088 31.9475 19.1592C32.0495 19.3096 32.208 19.4412 32.4228 19.5539C32.6376 19.6667 32.9142 19.7661 33.2526 19.852L34.5899 20.1743C35.4063 20.373 36.0132 20.6577 36.4107 21.0282C36.8135 21.3988 37.0149 21.8956 37.0149 22.5187V22.5348C37.0149 23.0504 36.8618 23.5069 36.5557 23.9043C36.2495 24.2964 35.8333 24.6026 35.307 24.8228C34.786 25.043 34.1952 25.1531 33.5346 25.1531ZM39.2707 25V12.8672H40.6724V17.6204H40.8013C41.0216 17.1585 41.3384 16.8014 41.752 16.5489C42.1655 16.2911 42.6919 16.1622 43.331 16.1622C43.9809 16.1622 44.5314 16.2885 44.9826 16.5409C45.4337 16.788 45.7775 17.1505 46.0138 17.6285C46.2501 18.1065 46.3682 18.6892 46.3682 19.3767V25H44.9665V19.7151C44.9665 18.9309 44.8 18.3509 44.467 17.9749C44.1393 17.5936 43.6291 17.4029 42.9363 17.4029C42.4744 17.4029 42.0742 17.5023 41.7359 17.701C41.3975 17.8997 41.1343 18.1817 40.9464 18.5469C40.7638 18.9121 40.6724 19.3499 40.6724 19.8601V25H39.2707ZM48.9382 25V16.3153H50.34V25H48.9382ZM49.6472 14.6396C49.384 14.6396 49.1557 14.5456 48.9624 14.3576C48.7744 14.1643 48.6804 13.936 48.6804 13.6729C48.6804 13.4043 48.7744 13.176 48.9624 12.9881C49.1557 12.8001 49.384 12.7061 49.6472 12.7061C49.9157 12.7061 50.144 12.8001 50.3319 12.9881C50.5199 13.176 50.6139 13.4043 50.6139 13.6729C50.6139 13.936 50.5199 14.1643 50.3319 14.3576C50.144 14.5456 49.9157 14.6396 49.6472 14.6396ZM52.9825 25V16.3153H54.3843V17.6043H54.5132C54.6797 17.1478 54.9616 16.7933 55.3591 16.5409C55.7565 16.2885 56.2479 16.1622 56.8334 16.1622C56.9676 16.1622 57.0992 16.1703 57.2281 16.1864C57.3624 16.1972 57.4644 16.2079 57.5343 16.2186V17.5802C57.3893 17.5533 57.2469 17.5345 57.1073 17.5238C56.973 17.5076 56.828 17.4996 56.6722 17.4996C56.2265 17.4996 55.8317 17.5882 55.488 17.7654C55.1442 17.9427 54.873 18.1897 54.6743 18.5066C54.4809 18.8235 54.3843 19.1941 54.3843 19.6184V25H52.9825ZM62.5131 25.0645C61.6215 25.0645 60.9743 24.8845 60.5715 24.5247C60.174 24.1648 59.9753 23.5714 59.9753 22.7442V17.4754H58.6058V16.3153H59.9753V14.0676H61.4255V16.3153H63.3267V17.4754H61.4255V22.3898C61.4255 22.9 61.5221 23.2679 61.7155 23.4935C61.9088 23.7137 62.2311 23.8238 62.6822 23.8238C62.8058 23.8238 62.9105 23.8211 62.9964 23.8157C63.0877 23.8104 63.1978 23.8023 63.3267 23.7916V24.9839C63.1925 25.0054 63.0582 25.0242 62.9239 25.0403C62.7897 25.0564 62.6527 25.0645 62.5131 25.0645ZM72.9943 27.9003C72.4733 27.2074 72.0437 26.4716 71.7053 25.6928C71.3669 24.9141 71.1145 24.0843 70.948 23.2034C70.7869 22.3226 70.7063 21.3827 70.7063 20.3837C70.7063 19.3848 70.7869 18.4475 70.948 17.5721C71.1091 16.6913 71.3589 15.8615 71.6972 15.0827C72.0356 14.2986 72.468 13.5601 72.9943 12.8672H74.1705C73.8805 13.2378 73.6093 13.7051 73.3568 14.269C73.1098 14.833 72.8949 15.456 72.7123 16.1381C72.5297 16.8148 72.3874 17.5184 72.2853 18.2488C72.1833 18.9739 72.1323 19.6855 72.1323 20.3837C72.1323 21.0873 72.1833 21.8043 72.2853 22.5348C72.3874 23.2598 72.5297 23.9634 72.7123 24.6455C72.8949 25.3223 73.1098 25.9399 73.3568 26.4985C73.6093 27.0624 73.8805 27.5297 74.1705 27.9003H72.9943ZM81.6629 25V22.5912H75.9993V21.2699C76.3162 20.7436 76.6384 20.2119 76.9661 19.6748C77.2937 19.1323 77.624 18.5926 77.957 18.0555C78.2953 17.513 78.6337 16.9759 78.9721 16.4442C79.3104 15.9125 79.6461 15.3888 79.9791 14.8732C80.3175 14.3576 80.6505 13.8581 80.9781 13.3748H83.0808V21.2941H84.7323V22.5912H83.0808V25H81.6629ZM77.4817 21.3022H81.6709V14.7202H81.5743C81.3111 15.1122 81.0425 15.5204 80.7686 15.9447C80.4947 16.3637 80.2154 16.7933 79.9308 17.2337C79.6515 17.6741 79.3722 18.1172 79.0929 18.563C78.8136 19.0088 78.537 19.4546 78.2631 19.9004C77.9946 20.3408 77.7341 20.7758 77.4817 21.2055V21.3022ZM87.7373 27.9003H86.5611C86.8511 27.5297 87.1197 27.0624 87.3667 26.4985C87.6192 25.9399 87.8367 25.3223 88.0193 24.6455C88.2019 23.9634 88.3442 23.2598 88.4463 22.5348C88.5483 21.8043 88.5993 21.0873 88.5993 20.3837C88.5993 19.6855 88.5483 18.9739 88.4463 18.2488C88.3442 17.5184 88.2019 16.8148 88.0193 16.1381C87.8367 15.456 87.6192 14.833 87.3667 14.269C87.1197 13.7051 86.8511 13.2378 86.5611 12.8672H87.7373C88.2637 13.5601 88.696 14.2986 89.0344 15.0827C89.3727 15.8615 89.6225 16.6913 89.7836 17.5721C89.9447 18.4475 90.0253 19.3848 90.0253 20.3837C90.0253 21.3827 89.9421 22.3226 89.7756 23.2034C89.6144 24.0843 89.3647 24.9141 89.0263 25.6928C88.6933 26.4716 88.2637 27.2074 87.7373 27.9003Z" fill="white"/>
</svg>
