<svg width="39" height="40" viewBox="0 0 39 40" fill="none" xmlns="http://www.w3.org/2000/svg">
<g clip-path="url(#clip0_30_2005)">
<path d="M38.8404 20.3947C38.8404 18.7637 38.7081 17.5736 38.422 16.3393H19.8174V23.7006H30.7379C30.5178 25.53 29.3289 28.2851 26.6867 30.1363L26.6497 30.3828L32.5321 34.9445L32.9397 34.9853C36.6826 31.5249 38.8404 26.4336 38.8404 20.3947Z" fill="#4285F4"/>
<path d="M19.8182 39.79C25.1684 39.79 29.6598 38.0267 32.9405 34.9853L26.6876 30.1364C25.0143 31.3045 22.7685 32.12 19.8182 32.12C14.5781 32.12 10.1306 28.6598 8.54524 23.8771L8.31286 23.8968L2.1962 28.6355L2.11621 28.8581C5.37474 35.3378 12.068 39.79 19.8182 39.79Z" fill="#34A853"/>
<path d="M8.54459 23.877C8.12627 22.6428 7.88417 21.3203 7.88417 19.9539C7.88417 18.5873 8.12627 17.265 8.52258 16.0307L8.5115 15.7679L2.3182 10.9531L2.11557 11.0496C0.772568 13.7385 0.00195312 16.7581 0.00195312 19.9539C0.00195312 23.1497 0.772568 26.1691 2.11557 28.858L8.54459 23.877Z" fill="#FBBC05"/>
<path d="M19.8182 7.78778C23.5391 7.78778 26.049 9.3967 27.4802 10.7412L33.0726 5.27526C29.638 2.07945 25.1683 0.117877 19.8182 0.117877C12.068 0.117877 5.37474 4.56994 2.11621 11.0497L8.52323 16.0308C10.1306 11.2481 14.5781 7.78778 19.8182 7.78778Z" fill="#EB4335"/>
</g>
<defs>
<clipPath id="clip0_30_2005">
<rect width="38.8611" height="39.8089" fill="white" transform="translate(0 0.117828)"/>
</clipPath>
</defs>
</svg>
