<svg width="25" height="25" viewBox="0 0 25 25" fill="none" xmlns="http://www.w3.org/2000/svg">
<circle cx="12.5" cy="12.5" r="12.5" fill="#E0E0E0" fill-opacity="0.933333"/>
<path d="M16.9379 12.1301H12.8699V8.0622C12.8699 7.96412 12.831 7.87005 12.7616 7.8007C12.6923 7.73135 12.5982 7.69238 12.5001 7.69238C12.4021 7.69238 12.308 7.73135 12.2386 7.8007C12.1693 7.87005 12.1303 7.96412 12.1303 8.0622V12.1301H8.06238C7.9643 12.1301 7.87023 12.1691 7.80088 12.2385C7.73153 12.3078 7.69256 12.4019 7.69256 12.5C7.69074 12.548 7.69924 12.5959 7.71749 12.6404C7.73574 12.6849 7.76331 12.725 7.79836 12.7579C7.8334 12.7909 7.8751 12.8159 7.92065 12.8314C7.96619 12.8468 8.01452 12.8524 8.06238 12.8476H12.1303V16.9377C12.1303 17.0358 12.1693 17.1299 12.2386 17.1992C12.308 17.2686 12.4021 17.3075 12.5001 17.3075C12.5982 17.3075 12.6923 17.2686 12.7616 17.1992C12.831 17.1299 12.8699 17.0358 12.8699 16.9377V12.8698H16.9379C17.036 12.8698 17.13 12.8308 17.1994 12.7615C17.2687 12.6921 17.3077 12.598 17.3077 12.5C17.3077 12.4019 17.2687 12.3078 17.1994 12.2385C17.13 12.1691 17.036 12.1301 16.9379 12.1301Z" fill="black"/>
</svg>
