<svg width="15" height="20" viewBox="0 0 15 20" fill="none" xmlns="http://www.w3.org/2000/svg">
<path d="M0 19.375V2.01875C0 1.44375 0.192916 0.96375 0.57875 0.57875C0.96375 0.192916 1.44375 0 2.01875 0H12.9813C13.5563 0 14.0363 0.192916 14.4213 0.57875C14.8071 0.96375 15 1.44375 15 2.01875V19.375L7.5 16.1538L0 19.375ZM1.25 17.4375L7.5 14.75L13.75 17.4375V2.01875C13.75 1.82708 13.67 1.65083 13.51 1.49C13.3492 1.33 13.1729 1.25 12.9813 1.25H2.01875C1.82708 1.25 1.65083 1.33 1.49 1.49C1.33 1.65083 1.25 1.82708 1.25 2.01875V17.4375Z" fill="black"/>
</svg>
