<svg width="38" height="52" viewBox="0 0 38 52" fill="none" xmlns="http://www.w3.org/2000/svg">
<path d="M0 51.6667V5.38333C0 3.85 0.488722 2.57 1.46617 1.54333C2.4415 0.514444 3.6575 0 5.11417 0H32.8858C34.3425 0 35.5585 0.514444 36.5338 1.54333C37.5113 2.57 38 3.85 38 5.38333V51.6667L19 43.0767L0 51.6667ZM3.16667 46.5L19 39.3333L34.8333 46.5V5.38333C34.8333 4.87222 34.6307 4.40222 34.2253 3.97333C33.8179 3.54667 33.3714 3.33333 32.8858 3.33333H5.11417C4.62861 3.33333 4.18211 3.54667 3.77467 3.97333C3.36933 4.40222 3.16667 4.87222 3.16667 5.38333V46.5Z" fill="white"/>
</svg>
